<svg width="50" height="50" viewBox="0 0 50 50" fill="none" xmlns="http://www.w3.org/2000/svg">
<circle cx="25.8984" cy="25.9004" r="20" fill="white"/>
<path fill-rule="evenodd" clip-rule="evenodd" d="M0 25C0 11.1929 11.1929 0 25 0C38.8071 0 50 11.1929 50 25C50 38.8071 38.8071 50 25 50C11.1929 50 0 38.8071 0 25ZM27.6058 39.6995V26.0981H31.3603L31.8579 21.411H27.6058L27.6122 19.0651C27.6122 17.8426 27.7283 17.1876 29.4841 17.1876H31.8313V12.5H28.0762C23.5658 12.5 21.9782 14.7737 21.9782 18.5975V21.4116H19.1667V26.0987H21.9782V39.6995H27.6058Z" fill="#1F1F1F"/>
</svg>
