<svg width="50" height="50" viewBox="0 0 50 50" fill="none" xmlns="http://www.w3.org/2000/svg">
<circle cx="24.5469" cy="25.0498" r="20" fill="white"/>
<path fill-rule="evenodd" clip-rule="evenodd" d="M0 25C0 11.1929 11.1929 0 25 0C38.8071 0 50 11.1929 50 25C50 38.8071 38.8071 50 25 50C11.1929 50 0 38.8071 0 25ZM25.0012 11.6667C21.3801 11.6667 20.9257 11.6825 19.5034 11.7472C18.084 11.8122 17.1151 12.0369 16.2673 12.3667C15.3903 12.7072 14.6464 13.1628 13.9053 13.9042C13.1636 14.6453 12.7081 15.3892 12.3664 16.2659C12.0358 17.1139 11.8108 18.0831 11.7469 19.502C11.6833 20.9243 11.6667 21.379 11.6667 25.0001C11.6667 28.6213 11.6828 29.0743 11.7472 30.4966C11.8125 31.916 12.0372 32.8849 12.3667 33.7327C12.7075 34.6097 13.1631 35.3536 13.9045 36.0947C14.6453 36.8364 15.3892 37.293 16.2656 37.6336C17.1139 37.9633 18.0831 38.1881 19.5023 38.2531C20.9245 38.3178 21.3787 38.3336 24.9996 38.3336C28.621 38.3336 29.0741 38.3178 30.4963 38.2531C31.9158 38.1881 32.8858 37.9633 33.7341 37.6336C34.6108 37.293 35.3536 36.8364 36.0944 36.0947C36.8361 35.3536 37.2917 34.6097 37.6333 33.733C37.9611 32.8849 38.1861 31.9158 38.2528 30.4969C38.3167 29.0746 38.3333 28.6213 38.3333 25.0001C38.3333 21.379 38.3167 20.9245 38.2528 19.5023C38.1861 18.0828 37.9611 17.1139 37.6333 16.2662C37.2917 15.3892 36.8361 14.6453 36.0944 13.9042C35.3527 13.1625 34.6111 12.707 33.7333 12.3667C32.8833 12.0369 31.9138 11.8122 30.4944 11.7472C29.0721 11.6825 28.6193 11.6667 24.9971 11.6667H25.0012Z" fill="#1F1F1F"/>
<path fill-rule="evenodd" clip-rule="evenodd" d="M23.8051 14.0695C24.1601 14.0689 24.5562 14.0695 25.0012 14.0695C28.5613 14.0695 28.9832 14.0822 30.3891 14.1461C31.6891 14.2056 32.3947 14.4228 32.8647 14.6053C33.4869 14.847 33.9305 15.1359 34.3969 15.6025C34.8636 16.0692 35.1525 16.5137 35.3947 17.1359C35.5772 17.6053 35.7947 18.3109 35.8539 19.6109C35.9178 21.0165 35.9316 21.4387 35.9316 24.9971C35.9316 28.5555 35.9178 28.9777 35.8539 30.3832C35.7944 31.6833 35.5772 32.3888 35.3947 32.8583C35.153 33.4805 34.8636 33.9236 34.3969 34.39C33.9302 34.8566 33.4872 35.1455 32.8647 35.3872C32.3952 35.5705 31.6891 35.7872 30.3891 35.8466C28.9835 35.9105 28.5613 35.9244 25.0012 35.9244C21.4409 35.9244 21.019 35.9105 19.6134 35.8466C18.3134 35.7866 17.6078 35.5694 17.1376 35.3869C16.5153 35.1452 16.0709 34.8563 15.6042 34.3897C15.1375 33.923 14.8486 33.4797 14.6064 32.8572C14.4239 32.3877 14.2064 31.6822 14.1472 30.3821C14.0834 28.9766 14.0706 28.5543 14.0706 24.9937C14.0706 21.4332 14.0834 21.0132 14.1472 19.6076C14.2067 18.3076 14.4239 17.602 14.6064 17.132C14.8481 16.5098 15.1375 16.0653 15.6042 15.5987C16.0709 15.132 16.5153 14.8431 17.1376 14.6009C17.6076 14.4175 18.3134 14.2009 19.6134 14.1411C20.8434 14.0856 21.3201 14.0689 23.8051 14.0661V14.0695ZM32.1185 16.2834C31.2352 16.2834 30.5185 16.9992 30.5185 17.8828C30.5185 18.7662 31.2352 19.4829 32.1185 19.4829C33.0019 19.4829 33.7186 18.7662 33.7186 17.8828C33.7186 16.9995 33.0019 16.2834 32.1185 16.2834ZM25.0012 18.1528C21.2198 18.1528 18.154 21.2187 18.154 25.0001C18.154 28.7816 21.2198 31.846 25.0012 31.846C28.7827 31.846 31.8474 28.7816 31.8474 25.0001C31.8474 21.2187 28.7827 18.1528 25.0012 18.1528Z" fill="#1F1F1F"/>
<path fill-rule="evenodd" clip-rule="evenodd" d="M25.0013 20.5556C27.4557 20.5556 29.4457 22.5454 29.4457 25.0001C29.4457 27.4546 27.4557 29.4446 25.0013 29.4446C22.5465 29.4446 20.5568 27.4546 20.5568 25.0001C20.5568 22.5454 22.5465 20.5556 25.0013 20.5556Z" fill="#1F1F1F"/>
</svg>
