<svg width="50" height="51" viewBox="0 0 50 51" fill="none" xmlns="http://www.w3.org/2000/svg">
<circle cx="24.3984" cy="24.9502" r="20" fill="white"/>
<path fill-rule="evenodd" clip-rule="evenodd" d="M0 25.0498C0 11.2427 11.1929 0.0498047 25 0.0498047C38.8071 0.0498047 50 11.2427 50 25.0498C50 38.8569 38.8071 50.0498 25 50.0498C11.1929 50.0498 0 38.8569 0 25.0498ZM15.0002 31.7165C15.0002 33.5573 16.4927 35.0498 18.3335 35.0498C20.1744 35.0498 21.6668 33.5573 21.6668 31.7165C21.6668 29.8756 20.1744 28.3831 18.3335 28.3831C16.4927 28.3831 15.0002 29.8756 15.0002 31.7165ZM38.3333 35.0498C38.3333 22.184 27.8659 11.7165 15.0002 11.7165V16.1606C25.416 16.1606 33.8892 24.634 33.8892 35.0498H38.3333ZM30.5557 35.0498C30.5557 26.4723 23.5774 19.494 15 19.494V23.939C21.1266 23.939 26.1115 28.9231 26.1115 35.0498H30.5557Z" fill="#1F1F1F"/>
</svg>
