<svg width="20" height="20" viewBox="0 0 20 20" fill="none" xmlns="http://www.w3.org/2000/svg">
<path d="M19.1693 2.50057C18.3713 3.06347 17.4877 3.49399 16.5526 3.77557C16.0507 3.19849 15.3837 2.78948 14.6418 2.60384C13.8999 2.4182 13.1189 2.4649 12.4043 2.73761C11.6898 3.01033 11.0763 3.4959 10.6468 4.12866C10.2172 4.76143 9.99235 5.51085 10.0026 6.27557V7.1089C8.53813 7.14687 7.087 6.82208 5.77845 6.16344C4.46989 5.5048 3.34454 4.53276 2.5026 3.3339C2.5026 3.3339 -0.830729 10.8339 6.66927 14.1672C4.95304 15.3322 2.90857 15.9163 0.835938 15.8339C8.33594 20.0006 17.5026 15.8339 17.5026 6.25057C17.5018 6.01845 17.4795 5.7869 17.4359 5.5589C18.2864 4.72014 18.8866 3.66116 19.1693 2.50057V2.50057Z" stroke="#DDDDDD" stroke-width="1.5" stroke-linecap="round" stroke-linejoin="round"/>
</svg>
