<svg width="50" height="50" viewBox="0 0 50 50" fill="none" xmlns="http://www.w3.org/2000/svg">
<circle cx="24.8984" cy="24.9004" r="20" fill="white"/>
<path fill-rule="evenodd" clip-rule="evenodd" d="M0 25C0 11.1929 11.1929 0 25 0C38.8071 0 50 11.1929 50 25C50 38.8071 38.8071 50 25 50C11.1929 50 0 38.8071 0 25ZM24.2513 20.3203L24.3037 21.1854L23.4294 21.0794C20.2467 20.6734 17.4663 19.2964 15.1056 16.9837L13.9514 15.8361L13.6541 16.6835C13.0246 18.5725 13.4268 20.5675 14.7383 21.9092C15.4378 22.6507 15.2804 22.7566 14.0738 22.3152C13.6541 22.174 13.2869 22.0681 13.2519 22.121C13.1295 22.2446 13.5492 23.8512 13.8815 24.4867C14.3361 25.3694 15.2629 26.2345 16.2772 26.7464L17.134 27.1525L16.1198 27.1701C15.1405 27.1701 15.1056 27.1878 15.2105 27.5585C15.5602 28.7061 16.9417 29.9242 18.4805 30.4538L19.5647 30.8246L18.6204 31.3895C17.2215 32.2016 15.5777 32.6606 13.9339 32.6959C13.147 32.7136 12.5 32.7842 12.5 32.8371C12.5 33.0137 14.6334 34.0023 15.875 34.3907C19.5997 35.5382 24.0239 35.0439 27.3464 33.0843C29.7072 31.6896 32.0679 28.9179 33.1696 26.2345C33.7642 24.8045 34.3587 22.1917 34.3587 20.9382C34.3587 20.1261 34.4112 20.0202 35.3905 19.0492C35.9675 18.4843 36.5096 17.8664 36.6145 17.6898C36.7894 17.3544 36.7719 17.3544 35.8801 17.6545C34.3937 18.1842 34.1839 18.1135 34.9183 17.3191C35.4604 16.7542 36.1074 15.7302 36.1074 15.4301C36.1074 15.3771 35.8451 15.4654 35.5478 15.6243C35.2331 15.8008 34.5336 16.0656 34.009 16.2245L33.0647 16.5247L32.2078 15.9421C31.7357 15.6243 31.0712 15.2712 30.7214 15.1653C29.8296 14.9181 28.4656 14.9534 27.6612 15.2359C25.4753 16.0303 24.0939 18.0782 24.2513 20.3203Z" fill="#1F1F1F"/>
</svg>
