<svg width="50" height="50" viewBox="0 0 50 50" fill="none" xmlns="http://www.w3.org/2000/svg">
<circle cx="25" cy="25" r="25" fill="#1F1F1F"/>
<path d="M40.1198 20.8112C40.0259 19.9558 39.8929 19.0929 39.7521 18.2448C39.533 16.9322 38.2262 15.7227 36.716 15.531C35.198 15.3392 33.6722 15.2139 32.1463 15.1475C29.885 15.0442 27.6236 15 25.3622 15C23.1008 15 20.8395 15.0516 18.5781 15.1475C17.0444 15.2139 15.5108 15.3466 13.9927 15.5383C12.4825 15.7301 11.1758 16.9395 10.9567 18.2522C10.8159 19.1003 10.6828 19.9558 10.5889 20.8112C10.1977 24.3732 10.2838 27.9204 10.8941 31.4528C11.1836 33.1268 12.3182 34.2699 14.1023 34.5059C15.5655 34.705 17.0522 34.823 18.5311 34.8746C20.8003 34.9484 23.0774 34.9926 25.3544 35C27.6314 34.9926 29.9006 34.9484 32.1776 34.8746C33.6565 34.823 35.1432 34.705 36.6065 34.5059C38.3905 34.2699 39.5251 33.1268 39.8147 31.4528C40.4172 27.9204 40.5032 24.3732 40.1198 20.8112Z" fill="white"/>
<path d="M22.3418 20.7227C24.9475 22.1534 27.5297 23.5693 30.151 25.0074C27.5297 26.4454 24.9553 27.854 22.3418 29.2847C22.3418 26.4233 22.3418 23.5988 22.3418 20.7227Z" fill="#1F1F1F"/>
</svg>
